<?xml version="1.0" encoding="utf-8"?>
<!-- Generator: Adobe Illustrator 16.0.4, SVG Export Plug-In . SVG Version: 6.00 Build 0)  -->
<!DOCTYPE svg PUBLIC "-//W3C//DTD SVG 1.1//EN" "http://www.w3.org/Graphics/SVG/1.1/DTD/svg11.dtd">
<svg version="1.1" id="Logo" xmlns="http://www.w3.org/2000/svg" xmlns:xlink="http://www.w3.org/1999/xlink" x="0px" y="0px"
	 width="651.969px" height="283.465px" viewBox="0 0 651.969 283.465" enable-background="new 0 0 651.969 283.465"
	 xml:space="preserve">
<polygon fill="#FFD500" points="113.385,56.679 56.692,113.372 113.385,113.372 "/>
<polygon fill="#C22F16" points="283.463,56.679 226.771,113.372 283.463,113.372 "/>
<polygon fill="#F49E00" points="113.385,56.679 113.385,113.372 170.078,113.372 "/>
<polygon fill="#FFD500" points="226.771,56.679 170.078,113.372 226.771,113.372 "/>
<polygon fill="#C22F16" points="56.692,170.065 113.385,170.065 56.692,113.372 "/>
<polygon fill="#F49E00" points="283.464,170.065 226.771,113.372 226.771,170.065 "/>
<polygon fill="#FFD500" points="56.692,226.758 113.385,226.758 113.385,170.065 "/>
<polygon fill="#F49E00" points="226.771,226.758 283.464,170.065 283.464,226.758 "/>
<polygon fill="#F49E00" points="56.692,56.679 56.692,113.372 113.385,56.679 "/>
<polygon fill="#F49E00" points="226.771,56.679 226.771,113.372 283.464,56.679 "/>
<polygon fill="#F49E00" points="56.692,113.372 113.385,170.065 113.385,113.372 "/>
<polygon fill="#FFD500" points="226.771,113.372 283.464,170.065 283.464,113.372 "/>
<polygon fill="#C22F16" points="113.385,113.372 170.078,170.065 170.078,113.372 "/>
<polygon fill="#F49E00" points="226.771,113.372 170.078,170.065 170.078,113.372 "/>
<polygon fill="#F49E00" points="56.692,170.065 56.692,226.758 113.385,170.065 "/>
<polygon fill="#C22F16" points="283.464,170.065 226.771,226.758 226.771,170.065 "/>
<g>
	<path fill="#1A171B" d="M373.669,149.006h-3.934V123.36c0-1.293,0.054-2.55,0.162-3.771c-0.458,1.114-1.086,2.282-1.886,3.502
		l-9.536,15.355h-2.587l-10.075-15.355c-0.79-1.186-1.4-2.352-1.831-3.502h-0.108c0.144,1.222,0.216,2.479,0.216,3.771v25.646
		h-3.934V113.5h4.005l11.233,16.923c0.801,1.219,1.401,2.259,1.802,3.119h0.055c0.474-1.034,1.037-2.068,1.692-3.102l10.647-16.94
		h4.078V149.006z"/>
	<path fill="#1A171B" d="M408.9,149.006h-4.152l-3.684-9.482h-14.283l-3.379,9.482h-3.921l13.577-35.667h2.209L408.9,149.006z
		 M399.686,136.021l-4.219-12.015c-0.649-1.867-1.1-3.34-1.352-4.418h-0.055c-0.289,1.111-0.758,2.563-1.406,4.354l-4.425,12.079
		H399.686z"/>
	<path fill="#1A171B" d="M418.592,149.006h-3.934V113.5h3.934V149.006z"/>
	<path fill="#1A171B" d="M457.523,149.006h-3.646l-18.018-23.918c-2.01-2.659-3.246-4.51-3.713-5.553c0,1.581,0,3.017,0,4.31v25.161
		h-3.934V113.5h4.096l17.24,23.059c2.227,2.982,3.574,4.976,4.041,5.981c0-1.58,0-3.017,0-4.31V113.5h3.934V149.006z"/>
	<path fill="#1A171B" d="M489.271,149.006h-25.105l17.887-31.842l-16.594,0.108l-1.24-3.771h24.217l-17.764,31.842h18.6V149.006z"/>
	<path fill="#1A171B" d="M513.074,149.006h-17.562V113.5h17.402l-1.617,3.664h-11.854v11.853h11.854v3.664h-11.854v12.662h13.631
		V149.006z"/>
	<path fill="#1A171B" d="M543.203,149.006h-4.688c-4.131-6.573-6.41-10.183-6.842-10.83c-1.832-2.694-3.09-4.112-3.771-4.256h-3.826
		v15.086h-3.932V113.5h7.326c3.951,0,6.951,0.935,8.998,2.802c1.832,1.652,2.748,3.915,2.748,6.789c0,2.371-0.701,4.437-2.102,6.196
		c-1.221,1.545-2.838,2.676-4.85,3.394v0.054c0.504,0.251,1.742,1.886,3.719,4.903C536.449,138.32,538.857,142.109,543.203,149.006z
		 M534.961,123.521c0-4.238-2.498-6.357-7.49-6.357h-3.395v13.254h3.611c2.047,0,3.771-0.682,5.172-2.047
		C534.26,127.006,534.961,125.39,534.961,123.521z"/>
</g>
<path fill="#C22F16" d="M340.157,170.076h11.501l26.566,34.908v-34.908h12.311v56.695h-10.61l-27.457-36.042v36.042h-12.312V170.076
	z"/>
<path fill="#C22F16" d="M396.851,170.076h42.764v11.096h-30.373v11.501h26.729v11.096h-26.729v11.906h30.777v11.096h-43.168V170.076
	z"/>
<path fill="#C22F16" d="M463.059,181.577h-17.252v-11.501h46.977v11.501h-17.252v45.194h-12.473V181.577z"/>
<path fill="#C22F16" d="M498.723,217.295l31.184-36.285h-30.211v-10.934h46.248v9.476l-31.184,36.285h31.184v10.934h-47.221V217.295
	z"/>
<path fill="#C22F16" d="M552.108,170.076h42.764v11.096h-30.373v11.501h26.729v11.096h-26.729v11.906h30.777v11.096h-43.168V170.076
	z"/>
</svg>
