<?xml version="1.0" encoding="utf-8"?>
<!-- Generator: Adobe Illustrator 16.0.4, SVG Export Plug-In . SVG Version: 6.00 Build 0)  -->
<!DOCTYPE svg PUBLIC "-//W3C//DTD SVG 1.1//EN" "http://www.w3.org/Graphics/SVG/1.1/DTD/svg11.dtd">
<svg version="1.1" id="Logo" xmlns="http://www.w3.org/2000/svg" xmlns:xlink="http://www.w3.org/1999/xlink" x="0px" y="0px"
	 width="751.182px" height="283.465px" viewBox="0 0 751.182 283.465" enable-background="new 0 0 751.182 283.465"
	 xml:space="preserve">
<rect x="0" y="0" fill="#1A171B" width="751.182" height="283.465"/>
<g>
	<path fill="#FFFFFF" d="M359.746,218.126c0,2.722-1.059,4.933-3.174,6.633c-2.117,1.702-4.789,2.552-8.017,2.552
		c-3.658,0-6.886-0.933-9.684-2.798l1.883-3.174c2.295,1.65,4.877,2.475,7.747,2.475c1.829,0,3.407-0.412,4.734-1.237
		c1.542-0.969,2.312-2.331,2.312-4.089c0-2.295-1.326-4.339-3.98-6.133c-2.475-1.578-4.949-3.156-7.424-4.734
		c-2.655-2.152-3.981-4.734-3.981-7.748c0-2.582,0.915-4.698,2.744-6.348s4.322-2.476,7.478-2.476c3.013,0,5.631,0.574,7.855,1.722
		v4.196c-2.252-1.506-4.825-2.259-7.718-2.259c-1.858,0-3.359,0.376-4.502,1.128c-1.286,0.859-1.929,2.095-1.929,3.706
		c0,2.148,1.357,4.136,4.075,5.962c2.501,1.611,5.004,3.223,7.507,4.833C358.388,212.522,359.746,215.118,359.746,218.126z"/>
	<path fill="#FFFFFF" d="M389.404,191.318l-1.398,3.658h-10.06v31.796h-3.928v-31.796H363.85v-3.658H389.404z"/>
	<path fill="#FFFFFF" d="M416.457,226.772h-4.146l-3.678-9.469h-14.262l-3.375,9.469h-3.914l13.557-35.615h2.205L416.457,226.772z
		 M407.256,213.807l-4.213-11.997c-0.648-1.865-1.098-3.336-1.35-4.412h-0.055c-0.287,1.109-0.756,2.559-1.404,4.348l-4.418,12.062
		H407.256z"/>
	<path fill="#FFFFFF" d="M449.219,208.695c0,5.272-1.506,9.505-4.52,12.697c-3.408,3.587-8.268,5.38-14.58,5.38h-7.908v-35.454
		h7.693c6.457,0,11.369,1.668,14.742,5.003C447.693,199.371,449.219,203.495,449.219,208.695z M445.184,208.642
		c0-3.98-1.166-7.19-3.496-9.63c-2.584-2.69-6.277-4.035-11.084-4.035h-4.465v28.138h4.357c5.094,0,8.912-1.453,11.459-4.358
		C444.107,216.281,445.184,212.91,445.184,208.642z"/>
	<path fill="#FFFFFF" d="M476.861,191.318l-1.398,3.658h-10.061v31.796h-3.928v-31.796h-10.168v-3.658H476.861z"/>
	<path fill="#FFFFFF" d="M527.879,191.318l-12.104,35.615h-2.885l-6.502-18.283c-0.709-1.976-1.312-3.825-1.807-5.549l-0.107-0.001
		c-0.572,1.794-1.197,3.642-1.875,5.543l-6.742,18.29h-2.949l-12.318-35.615h4.268l7.904,23.667c0.738,2.3,1.303,4.15,1.691,5.552
		l0.109-0.006c0.217-0.824,0.848-2.636,1.896-5.434l6.129-16.767l-2.43-7.013h4.156l8.123,23.457
		c0.467,1.256,1.094,3.085,1.883,5.487h0.107c0.359-1.471,0.879-3.246,1.561-5.326l7.742-23.618H527.879z"/>
	<path fill="#FFFFFF" d="M551.174,226.772h-17.539v-35.454h17.377l-1.613,3.658h-11.836v11.836h11.836v3.658h-11.836v12.644h13.611
		V226.772z"/>
	<path fill="#FFFFFF" d="M581.258,226.772h-4.68c-4.125-6.563-6.402-10.168-6.834-10.813c-1.828-2.69-3.084-4.106-3.766-4.251
		h-3.818v15.064h-3.928v-35.454h7.316c3.945,0,6.939,0.933,8.984,2.798c1.83,1.649,2.744,3.909,2.744,6.778
		c0,2.367-0.699,4.431-2.098,6.188c-1.221,1.542-2.834,2.672-4.844,3.389v0.054c0.502,0.252,1.74,1.884,3.713,4.896
		C574.516,216.103,576.918,219.886,581.258,226.772z M573.027,201.325c0-4.231-2.494-6.349-7.479-6.349h-3.389v13.235h3.604
		c2.045,0,3.766-0.682,5.164-2.045C572.328,204.805,573.027,203.19,573.027,201.325z"/>
	<path fill="#FFFFFF" d="M610.365,226.772h-5.246l-14.203-16.033v0.001v16.032h-3.928v-35.454h3.928v16.302l13.234-16.302H609
		l-14.582,17.533L610.365,226.772z"/>
	<path fill="#FFFFFF" d="M633.633,226.772h-17.539v-35.454h17.377l-1.613,3.658h-11.836v11.836h11.836v3.658h-11.836v12.644h13.611
		V226.772z"/>
</g>
<g>
	<path fill="#FFFFFF" d="M384.461,170.065v-37.014l-15.956,24.217h-0.323l-15.794-23.975v36.771h-12.23V113.37h13.445l14.902,23.975
		l14.902-23.975h13.446v56.695H384.461z"/>
	<path fill="#FFFFFF" d="M447.074,170.065l-5.184-12.715h-23.973l-5.184,12.715h-12.717l24.299-56.681h11.5l24.299,56.681H447.074z
		 M429.904,127.948l-7.533,18.387h15.066L429.904,127.948z"/>
	<path fill="#FFFFFF" d="M463.764,170.065V113.37h12.475v56.695H463.764z"/>
	<path fill="#FFFFFF" d="M524.916,170.065l-27.457-36.041v36.041h-12.311V113.37h11.5l26.566,34.908V113.37h12.311v56.695H524.916z"
		/>
	<path fill="#FFFFFF" d="M542.576,170.065v-9.477l31.184-36.285h-30.211V113.37h46.248v9.477l-31.184,36.285h31.184v10.934H542.576z
		"/>
	<path fill="#FFFFFF" d="M596.846,170.065V113.37h42.766v11.096h-30.373v11.502h26.729v11.096h-26.729v11.906h30.777v11.096H596.846
		z"/>
	<path fill="#FFFFFF" d="M681.568,170.065l-12.148-18.143h-9.801v18.143h-12.473V113.37h25.918c13.363,0,21.383,7.047,21.383,18.709
		v0.162c0,9.152-4.941,14.904-12.148,17.576l13.85,20.248H681.568z M681.812,132.727c0-5.346-3.727-8.1-9.801-8.1h-12.393v16.279
		h12.635c6.076,0,9.559-3.238,9.559-8.018V132.727z"/>
</g>
<polygon fill="#A50C6D" points="113.385,56.679 56.692,113.372 113.385,113.372 "/>
<polygon fill="#C22F16" points="283.463,56.679 226.771,113.372 283.463,113.372 "/>
<polygon fill="#E2001A" points="113.385,56.679 113.385,113.372 170.078,113.372 "/>
<polygon fill="#FFD500" points="226.771,56.679 170.078,113.372 226.771,113.372 "/>
<polygon fill="#006E89" points="56.692,170.065 113.385,170.065 56.692,113.372 "/>
<polygon fill="#A80545" points="283.464,170.065 226.771,113.372 226.771,170.065 "/>
<polygon fill="#418622" points="56.692,226.758 113.385,226.758 113.385,170.065 "/>
<polygon fill="#0062A7" points="226.771,226.758 283.464,170.065 283.464,226.758 "/>
<polygon fill="#E2007A" points="56.692,56.679 56.692,113.372 113.385,56.679 "/>
<polygon fill="#EE7F00" points="226.771,56.679 226.771,113.372 283.464,56.679 "/>
<polygon fill="#00AEC7" points="56.692,113.372 113.385,170.065 113.385,113.372 "/>
<polygon fill="#E3004F" points="226.771,113.372 283.464,170.065 283.464,113.372 "/>
<polygon fill="#AF0917" points="113.385,113.372 170.078,170.065 170.078,113.372 "/>
<polygon fill="#F49E00" points="226.771,113.372 170.078,170.065 170.078,113.372 "/>
<polygon fill="#97BF0D" points="56.692,170.065 56.692,226.758 113.385,170.065 "/>
<polygon fill="#00B1E6" points="283.464,170.065 226.771,226.758 226.771,170.065 "/>
</svg>
