<?xml version="1.0" encoding="utf-8"?>
<!-- Generator: Adobe Illustrator 16.0.4, SVG Export Plug-In . SVG Version: 6.00 Build 0)  -->
<!DOCTYPE svg PUBLIC "-//W3C//DTD SVG 1.1//EN" "http://www.w3.org/Graphics/SVG/1.1/DTD/svg11.dtd">
<svg version="1.1" id="Logo" xmlns="http://www.w3.org/2000/svg" xmlns:xlink="http://www.w3.org/1999/xlink" x="0px" y="0px"
	 width="839.055px" height="283.465px" viewBox="0 0 839.055 283.465" enable-background="new 0 0 839.055 283.465"
	 xml:space="preserve">
<rect x="0" y="0" fill="#1A171B" width="839.055" height="283.465"/>
<g>
	<path fill="#FFFFFF" d="M384.461,170.065v-37.014l-15.956,24.217h-0.323l-15.794-23.975v36.771h-12.23V113.37h13.445l14.902,23.975
		l14.902-23.975h13.446v56.695H384.461z"/>
	<path fill="#FFFFFF" d="M447.074,170.065l-5.184-12.715h-23.973l-5.184,12.715h-12.717l24.299-56.681h11.5l24.299,56.681H447.074z
		 M429.904,127.948l-7.533,18.387h15.066L429.904,127.948z"/>
	<path fill="#FFFFFF" d="M463.764,170.065V113.37h12.475v56.695H463.764z"/>
	<path fill="#FFFFFF" d="M524.916,170.065l-27.457-36.041v36.041h-12.311V113.37h11.5l26.566,34.908V113.37h12.311v56.695H524.916z"
		/>
	<path fill="#FFFFFF" d="M542.576,170.065v-9.477l31.184-36.285h-30.211V113.37h46.248v9.477l-31.184,36.285h31.184v10.934H542.576z
		"/>
	<path fill="#FFFFFF" d="M596.846,170.065V113.37h42.766v11.096h-30.373v11.502h26.729v11.096h-26.729v11.906h30.777v11.096H596.846
		z"/>
	<path fill="#FFFFFF" d="M681.568,170.065l-12.148-18.143h-9.801v18.143h-12.473V113.37h25.918c13.363,0,21.383,7.047,21.383,18.709
		v0.162c0,9.152-4.941,14.904-12.148,17.576l13.85,20.248H681.568z M681.812,132.727c0-5.346-3.727-8.1-9.801-8.1h-12.393v16.279
		h12.635c6.076,0,9.559-3.238,9.559-8.018V132.727z"/>
</g>
<polygon fill="#A50C6D" points="113.385,56.679 56.692,113.372 113.385,113.372 "/>
<polygon fill="#C22F16" points="283.463,56.679 226.771,113.372 283.463,113.372 "/>
<polygon fill="#E2001A" points="113.385,56.679 113.385,113.372 170.078,113.372 "/>
<polygon fill="#FFD500" points="226.771,56.679 170.078,113.372 226.771,113.372 "/>
<polygon fill="#006E89" points="56.692,170.065 113.385,170.065 56.692,113.372 "/>
<polygon fill="#A80545" points="283.464,170.065 226.771,113.372 226.771,170.065 "/>
<polygon fill="#418622" points="56.692,226.758 113.385,226.758 113.385,170.065 "/>
<polygon fill="#0062A7" points="226.771,226.758 283.464,170.065 283.464,226.758 "/>
<polygon fill="#E2007A" points="56.692,56.679 56.692,113.372 113.385,56.679 "/>
<polygon fill="#EE7F00" points="226.771,56.679 226.771,113.372 283.464,56.679 "/>
<polygon fill="#00AEC7" points="56.692,113.372 113.385,170.065 113.385,113.372 "/>
<polygon fill="#E3004F" points="226.771,113.372 283.464,170.065 283.464,113.372 "/>
<polygon fill="#AF0917" points="113.385,113.372 170.078,170.065 170.078,113.372 "/>
<polygon fill="#F49E00" points="226.771,113.372 170.078,170.065 170.078,113.372 "/>
<polygon fill="#97BF0D" points="56.692,170.065 56.692,226.758 113.385,170.065 "/>
<polygon fill="#00B1E6" points="283.464,170.065 226.771,226.758 226.771,170.065 "/>
<g>
	<path fill="#FFFFFF" d="M350.401,194.394h-10.365v-3.4h25.83l-1.206,3.4h-10.201v32.74h-4.058V194.394z"/>
	<path fill="#FFFFFF" d="M377.335,190.884h2.742l13.819,36.25h-4.332l-3.619-9.707h-14.478l-3.564,9.707h-4.278L377.335,190.884z
		 M384.684,214.027l-3.784-10.419c-1.097-3.181-1.7-4.881-2.139-6.252h-0.11c-0.384,1.371-1.042,3.071-2.194,6.252l-3.729,10.419
		H384.684z"/>
	<path fill="#FFFFFF" d="M398.924,220.004c-0.549-1.7-0.822-3.674-0.822-5.813v-23.197h4.058v22.813c0,1.919,0.22,3.62,0.713,5.045
		c1.262,3.4,4.168,5.374,8.665,5.374c4.552,0,7.403-1.974,8.665-5.374c0.548-1.426,0.713-3.126,0.713-5.21v-22.649h4.058v23.197
		c0,2.249-0.274,4.223-0.932,5.923c-1.755,4.936-6.088,7.568-12.504,7.568C404.956,227.682,400.679,224.995,398.924,220.004z"/>
	<path fill="#FFFFFF" d="M434.666,190.994h8.391c7.678,0,11.078,4.223,11.078,9.158c0,3.674-1.81,6.581-4.771,7.842v0.11
		c4.059,0.877,7.02,4.223,7.02,8.774c0,6.087-4.277,10.255-12.284,10.255h-9.433V190.994z M442.673,206.953
		c4.826,0,7.403-2.358,7.403-6.361c0-3.62-2.084-6.197-7.238-6.197h-4.113v12.559H442.673z M444.099,223.734
		c4.881,0,8.116-1.919,8.116-6.746c0-4.058-3.016-6.636-7.622-6.636h-5.868v13.381H444.099z"/>
	<path fill="#FFFFFF" d="M464.321,190.994h17.439l-1.261,3.4h-12.12v12.559h11.9v3.345h-11.9v13.436h13.71v3.4h-17.769V190.994z"/>
	<path fill="#FFFFFF" d="M489.227,190.994h7.349c3.784,0,6.307,0.713,8.172,1.919c2.906,1.81,4.223,4.771,4.223,7.952
		c0,4.991-2.688,8.117-7.349,9.542v0.109c1.097,0.548,2.468,2.578,4.332,5.758l6.581,10.858h-4.717l-6.307-10.475
		c-1.699-2.852-3.07-4.606-4.167-4.88h-4.059v15.355h-4.059V190.994z M496.686,208.378c1.974,0,3.564-0.384,4.99-1.207
		c1.864-1.097,3.126-3.126,3.126-5.922c0-2.139-0.713-4.003-2.304-5.155c-1.151-0.987-2.961-1.7-5.758-1.7h-3.455v13.984H496.686z"
		/>
	<path fill="#FFFFFF" d="M524.553,194.394h-10.365v-3.4h25.83l-1.207,3.4h-10.2v32.74h-4.058V194.394z"/>
	<path fill="#FFFFFF" d="M544.72,221.759c1.755,1.152,4.497,2.413,7.842,2.413c3.895,0,7.294-1.59,7.294-5.868
		c0-8.665-15.903-7.623-15.903-18.426c0-5.1,3.894-9.158,10.639-9.158c3.291,0,6.197,0.822,7.843,1.645v3.784
		c-2.249-1.261-4.991-1.974-7.732-1.974c-3.236,0-6.526,1.426-6.526,5.32c0,8.171,15.903,7.293,15.903,18.536
		c0,6.033-4.661,9.652-11.571,9.652c-4.112,0-7.349-1.261-9.487-2.742L544.72,221.759z"/>
	<path fill="#FFFFFF" d="M571.704,190.994h8.391c7.678,0,11.078,4.223,11.078,9.158c0,3.674-1.81,6.581-4.771,7.842v0.11
		c4.059,0.877,7.02,4.223,7.02,8.774c0,6.087-4.277,10.255-12.284,10.255h-9.433V190.994z M579.711,206.953
		c4.826,0,7.403-2.358,7.403-6.361c0-3.62-2.084-6.197-7.238-6.197h-4.113v12.559H579.711z M581.137,223.734
		c4.881,0,8.116-1.919,8.116-6.746c0-4.058-3.016-6.636-7.622-6.636h-5.868v13.381H581.137z"/>
	<path fill="#FFFFFF" d="M601.359,190.994h17.439l-1.261,3.4h-12.12v12.559h11.9v3.345h-11.9v13.436h13.71v3.4h-17.769V190.994z"/>
	<path fill="#FFFFFF" d="M626.265,190.994h7.349c3.784,0,6.307,0.713,8.172,1.919c2.906,1.81,4.223,4.771,4.223,7.952
		c0,4.991-2.688,8.117-7.349,9.542v0.109c1.097,0.548,2.468,2.578,4.332,5.758l6.581,10.858h-4.717l-6.307-10.475
		c-1.699-2.852-3.07-4.606-4.167-4.88h-4.059v15.355h-4.059V190.994z M633.724,208.378c1.974,0,3.564-0.384,4.99-1.207
		c1.864-1.097,3.126-3.126,3.126-5.922c0-2.139-0.713-4.003-2.304-5.155c-1.151-0.987-2.961-1.7-5.758-1.7h-3.455v13.984H633.724z"
		/>
	<path fill="#FFFFFF" d="M682.818,224.94c-2.413,1.262-6.8,2.742-11.846,2.742c-10.748,0-17.823-7.513-17.823-18.097
		c0-11.078,7.459-18.865,18.646-18.865c4.223,0,7.732,1.042,9.871,1.919v3.839c-2.578-1.316-5.759-2.303-9.652-2.303
		c-9.322,0-14.587,6.197-14.587,14.971c0,9.268,5.483,15.026,14.039,15.026c3.016,0,5.703-0.658,7.349-1.48v-12.613h4.003V224.94z"
		/>
	<path fill="#FFFFFF" d="M692.014,190.994h8.391c7.678,0,11.078,4.223,11.078,9.158c0,3.674-1.81,6.581-4.771,7.842v0.11
		c4.059,0.877,7.02,4.223,7.02,8.774c0,6.087-4.277,10.255-12.284,10.255h-9.433V190.994z M700.021,206.953
		c4.826,0,7.403-2.358,7.403-6.361c0-3.62-2.084-6.197-7.238-6.197h-4.113v12.559H700.021z M701.446,223.734
		c4.881,0,8.116-1.919,8.116-6.746c0-4.058-3.016-6.636-7.622-6.636h-5.868v13.381H701.446z"/>
	<path fill="#FFFFFF" d="M731.135,190.884h2.742l13.819,36.25h-4.332l-3.62-9.707h-14.478l-3.564,9.707h-4.277L731.135,190.884z
		 M738.483,214.027l-3.784-10.419c-1.097-3.181-1.7-4.881-2.139-6.252h-0.11c-0.384,1.371-1.042,3.071-2.193,6.252l-3.729,10.419
		H738.483z"/>
	<path fill="#FFFFFF" d="M753.693,190.994h8.665c12.942,0,19.14,7.568,19.14,17.878c0,10.365-6.252,18.262-19.304,18.262h-8.501
		V190.994z M762.139,223.734c11.243,0,15.081-6.91,15.081-15.026c0-8.281-4.716-14.313-15.19-14.313h-4.277v29.34H762.139z"/>
</g>
</svg>
