<svg xmlns="http://www.w3.org/2000/svg" width="108" height="54" viewBox="0 0 108 54">
    <path fill="#fff" d="M431.241 99.463a28.558 28.558 0 0 0-22.549 3.393 38.355 38.355 0 0 0-8.635 8.625 36.079 36.079 0 0 0-2.744 4.5c-1.979 3.345-3.866 6.374-5.6 9.064-1.752 2.713-3.352 5.083-4.743 7.1-2.106 3.045-3.515 4.942-6.089 6.619-.24.158-.758.487-1.5.874a17.523 17.523 0 0 1-11.35 1.981c-8.168-1.652-15.322-10.864-13.122-20.108a17.119 17.119 0 0 1 14.641-12.628 17.87 17.87 0 0 1 18.57 11.017l3.6-5.21 2.851-4.132a28.509 28.509 0 0 0-30.794-11.535 26.825 26.825 0 0 0 .7 52.161 28.189 28.189 0 0 0 14.911-.474 29.257 29.257 0 0 0 12.327-7.461 28.473 28.473 0 0 0 5.6-8.125 28.607 28.607 0 0 0 29.362 16.783c12.635-1.4 23.2-11.044 24.708-23.527 1.66-13.793-8.36-25.65-20.144-28.917zm10.228 27.114c-.771 9.831-10.689 14.086-11.173 14.283a16.189 16.189 0 0 1-17.348-2.519 26.45 26.45 0 0 1-6.8-8.058 33.682 33.682 0 0 1-2.447-5 41.052 41.052 0 0 1 4.293-7.538 24.269 24.269 0 0 1 4.957-5.519 16.959 16.959 0 0 1 6.132-3.338 17.4 17.4 0 0 1 11.216.822c5.789 2.41 11.801 8.761 11.17 16.867z" transform="translate(-343.564 -98.083)"/>
</svg>
