<svg xmlns="http://www.w3.org/2000/svg" width="20.571" height="24" viewBox="0 0 20.571 24">
    <defs>
        <style>
            .cls-3{fill:#e0e0e0}.cls-4{fill:#b4b4b4}.cls-5{fill:#a9cbf5}.cls-7{fill:#263238}
        </style>
    </defs>
    <g id="resources_illustration" transform="translate(-471 -2405.011)">
        <g id="Grupo_22412" transform="translate(471 2409.198)">
            <path id="Trazado_26425" fill="#e5f0fd" d="M600.277 186.364h-11.725a1.489 1.489 0 0 1-1.467-1.51v-16.7a1.489 1.489 0 0 1 1.467-1.51h7.436l5.756 6.105v12.105a1.489 1.489 0 0 1-1.467 1.51z" transform="translate(-587.034 -166.592)"/>
            <path id="Trazado_26426" fill="#f5f5f5" d="M633.035 166.644v4.7a1.385 1.385 0 0 0 1.364 1.4h4.392z" transform="translate(-624.082 -166.592)"/>
            <path id="Trazado_26428" d="M600.065 186.154c0-.007.088 0 .253-.031a1.449 1.449 0 0 0 .665-.319 1.506 1.506 0 0 0 .525-1.065c.008-.487 0-1.052 0-1.683 0-2.529-.01-6.146-.018-10.517l.012.03-5.76-6.1.035.015h-7.105a3.671 3.671 0 0 0-.563.021 1.413 1.413 0 0 0-.92.591 1.464 1.464 0 0 0-.259.742c-.01.268 0 .547-.005.819V184.291a3.561 3.561 0 0 0 .027.635 1.471 1.471 0 0 0 .664.97 1.391 1.391 0 0 0 .541.2 5.29 5.29 0 0 0 .577.016h2.213l6.679.016 1.815.01.472.005c.106 0 .161.005.161.005s-.055 0-.161.005l-.472.005-1.815.01-6.679.017h-2.213a5.31 5.31 0 0 1-.588-.015 1.471 1.471 0 0 1-.572-.206 1.556 1.556 0 0 1-.7-1.025 3.634 3.634 0 0 1-.03-.652v-.656-1.343-2.8-6.021-3.185-1.629c0-.275-.006-.544.005-.826a1.571 1.571 0 0 1 .278-.8 1.514 1.514 0 0 1 .986-.632 3.725 3.725 0 0 1 .58-.023h7.126l.014.015 5.751 6.11.012.013v.018l-.018 10.517c0 .632 0 1.193-.01 1.685a1.531 1.531 0 0 1-.546 1.083 1.433 1.433 0 0 1-.679.312 1.054 1.054 0 0 1-.191.018z" class="cls-3" transform="translate(-586.822 -166.382)"/>
            <path id="Trazado_26427" d="M633.343 192.287a1.56 1.56 0 0 0 1.2 1.515 1.439 1.439 0 0 0 .145.034c.573.105 4.348.8 4.348.707v-1.263h-4.392a1.4 1.4 0 0 1-1.301-.993z" class="cls-3" transform="translate(-624.33 -187.122)"/>
            <path id="Trazado_26429" d="M638.581 172.749a.465.465 0 0 1-.113.011l-.324.01-1.19.016-1.764.011h-1.043a1.394 1.394 0 0 1-1.02-.492 1.462 1.462 0 0 1-.288-.523 1.738 1.738 0 0 1-.064-.576v-1.072c0-.68.008-1.295.011-1.816s.012-.921.016-1.224l.009-.333a.058.058 0 1 1 .02 0l.01.333c0 .3.009.718.016 1.224s.007 1.136.011 1.816v1.072a1.424 1.424 0 0 0 .329 1.031 1.3 1.3 0 0 0 .947.459l1.04.005 1.764.011 1.19.017.324.01a.471.471 0 0 1 .119.01z" class="cls-3" transform="translate(-623.871 -166.592)"/>
            <path id="Trazado_26430" d="M606.15 187.472c0 .029-1.385.052-3.093.052s-3.093-.023-3.093-.052 1.385-.052 3.093-.052 3.093.023 3.093.052z" class="cls-4" transform="translate(-597.418 -183.225)"/>
            <path id="Trazado_26431" d="M609.085 199.231c0 .029-2.042.052-4.56.052s-4.561-.023-4.561-.052 2.042-.052 4.561-.052 4.56.021 4.56.052z" class="cls-4" transform="translate(-597.418 -192.64)"/>
            <path id="Trazado_26432" d="M609.085 210.991c0 .029-2.042.052-4.56.052s-4.561-.023-4.561-.052 2.042-.052 4.561-.052 4.56.023 4.56.052z" class="cls-4" transform="translate(-597.418 -202.055)"/>
            <path id="Trazado_26433" d="M609.085 222.75c0 .029-2.042.052-4.56.052s-4.561-.023-4.561-.052 2.042-.052 4.561-.052 4.56.023 4.56.052z" class="cls-4" transform="translate(-597.418 -211.47)"/>
            <path id="Trazado_26434" d="M609.085 234.51c0 .029-2.042.052-4.56.052s-4.561-.023-4.561-.052 2.042-.052 4.561-.052 4.56.023 4.56.052z" class="cls-4" transform="translate(-597.418 -220.885)"/>
            <path id="Trazado_26435" d="M609.085 249.014c0 .029-2.042.052-4.56.052s-4.561-.023-4.561-.052 2.042-.052 4.561-.052 4.56.023 4.56.052z" class="cls-4" transform="translate(-597.418 -232.497)"/>
        </g>
        <g id="Grupo_22367" transform="translate(476.552 2405.011)">
            <path id="Trazado_26414" d="M570.619 351.142H558.68a1.516 1.516 0 0 1-1.494-1.537V332.6a1.516 1.516 0 0 1 1.494-1.537h7.572l5.861 6.217v12.326a1.516 1.516 0 0 1-1.494 1.536z" class="cls-5" transform="translate(-557.135 -331.01)"/>
            <path id="Trazado_26415" d="M603.977 331.062v4.786a1.41 1.41 0 0 0 1.389 1.43h4.472z" class="cls-5" transform="translate(-594.861 -331.01)"/>
            <path id="Trazado_26416" fill="rgba(18,112,227,0.36)" d="M604.29 357.173a1.588 1.588 0 0 0 1.225 1.542 1.4 1.4 0 0 0 .147.034c.584.107 4.428.811 4.428.72v-1.286h-4.472a1.423 1.423 0 0 1-1.328-1.01z" transform="translate(-595.113 -351.915)"/>
            <path id="Trazado_26417" d="M570.408 350.933c0-.007.089 0 .258-.031a1.474 1.474 0 0 0 .677-.325 1.534 1.534 0 0 0 .535-1.084c.008-.5 0-1.071 0-1.714 0-2.575-.01-6.259-.018-10.71l.012.03-5.866-6.212.035.015h-7.234a3.714 3.714 0 0 0-.573.022 1.44 1.44 0 0 0-.937.6 1.494 1.494 0 0 0-.264.756c-.01.273 0 .557-.005.834V349.038a3.642 3.642 0 0 0 .027.647 1.5 1.5 0 0 0 .677.989 1.419 1.419 0 0 0 .551.2 5.362 5.362 0 0 0 .588.016h2.254l6.8.017 1.849.01.481.005c.108 0 .164.005.164.005s-.056 0-.164.005l-.481.005-1.849.01-6.8.017h-2.254a5.412 5.412 0 0 1-.6-.015 1.5 1.5 0 0 1-.582-.21 1.582 1.582 0 0 1-.717-1.043 3.692 3.692 0 0 1-.031-.664v-.668-1.368-2.855-6.131-3.243-1.659c0-.28-.005-.554.006-.841a1.6 1.6 0 0 1 .283-.809 1.541 1.541 0 0 1 1-.644 3.787 3.787 0 0 1 .59-.023h7.255l.014.015 5.857 6.221.012.013v.018l-.018 10.71c0 .643 0 1.215-.01 1.716a1.557 1.557 0 0 1-.556 1.1 1.459 1.459 0 0 1-.691.318 1.085 1.085 0 0 1-.194.018c-.059.014-.081.013-.081.013z" class="cls-7" transform="translate(-556.924 -330.8)"/>
            <path id="Trazado_26418" d="M609.628 337.279a.486.486 0 0 1-.115.01l-.329.01-1.211.016-1.8.011h-1.062a1.419 1.419 0 0 1-1.038-.5 1.491 1.491 0 0 1-.293-.533 1.761 1.761 0 0 1-.066-.587v-1.092c0-.693.008-1.318.011-1.849s.012-.938.016-1.247c0-.138.007-.25.01-.339a.541.541 0 0 1 .01-.118.514.514 0 0 1 .01.118l.01.339c0 .308.009.731.016 1.247s.007 1.156.011 1.849v1.092a1.663 1.663 0 0 0 .062.556 1.4 1.4 0 0 0 .273.495 1.326 1.326 0 0 0 .965.468l1.059.005 1.8.011 1.211.017.329.01a.481.481 0 0 1 .121.011z" class="cls-7" transform="translate(-594.65 -331.01)"/>
            <path id="Trazado_26419" d="M576.6 352.274c0 .029-1.41.052-3.149.052s-3.15-.023-3.15-.052 1.41-.052 3.15-.052 3.149.023 3.149.052z" class="cls-7" transform="translate(-567.709 -347.951)"/>
            <path id="Trazado_26420" d="M579.589 364.249c0 .029-2.079.052-4.643.052s-4.644-.023-4.644-.052 2.079-.052 4.644-.052 4.643.023 4.643.052z" class="cls-7" transform="translate(-567.709 -357.538)"/>
            <path id="Trazado_26421" d="M579.589 376.223c0 .029-2.079.052-4.643.052s-4.644-.023-4.644-.052 2.079-.052 4.644-.052 4.643.023 4.643.052z" class="cls-7" transform="translate(-567.709 -367.125)"/>
            <path id="Trazado_26422" d="M579.589 388.2c0 .029-2.079.052-4.643.052s-4.644-.023-4.644-.052 2.079-.052 4.644-.052 4.643.021 4.643.052z" class="cls-7" transform="translate(-567.709 -376.712)"/>
            <path id="Trazado_26423" d="M579.589 400.173c0 .029-2.079.052-4.643.052s-4.644-.023-4.644-.052 2.079-.052 4.644-.052 4.643.023 4.643.052z" class="cls-7" transform="translate(-567.709 -386.3)"/>
            <path id="Trazado_26424" d="M579.589 414.942c0 .029-2.079.052-4.643.052s-4.644-.023-4.644-.052 2.079-.052 4.644-.052 4.643.023 4.643.052z" class="cls-7" transform="translate(-567.709 -398.124)"/>
        </g>
    </g>
</svg>
